<?xml version="1.0" encoding="UTF-8"?>
<svg width="600" height="400" viewBox="0 0 600 400" fill="none" xmlns="http://www.w3.org/2000/svg">
    <!-- Background Pattern -->
    <path d="M50,50 L550,50 L550,350 L50,350 Z" fill="#f3f4f6" stroke="#e5e7eb" stroke-width="2"/>
    
    <!-- Kanban Board -->
    <g transform="translate(100,100)">
        <!-- Board Columns -->
        <rect x="0" y="0" width="100" height="200" rx="8" fill="#dbeafe"/>
        <rect x="120" y="0" width="100" height="200" rx="8" fill="#ddd6fe"/>
        <rect x="240" y="0" width="100" height="200" rx="8" fill="#dcfce7"/>
        
        <!-- Tasks -->
        <rect x="10" y="20" width="80" height="40" rx="4" fill="white" stroke="#93c5fd"/>
        <rect x="10" y="70" width="80" height="40" rx="4" fill="white" stroke="#93c5fd"/>
        
        <rect x="130" y="20" width="80" height="40" rx="4" fill="white" stroke="#c4b5fd"/>
        <rect x="130" y="70" width="80" height="40" rx="4" fill="white" stroke="#c4b5fd"/>
        <rect x="130" y="120" width="80" height="40" rx="4" fill="white" stroke="#c4b5fd"/>
        
        <rect x="250" y="20" width="80" height="40" rx="4" fill="white" stroke="#86efac"/>
    </g>
    
    <!-- Decorative Elements -->
    <circle cx="450" cy="100" r="30" fill="#6366f1" opacity="0.2"/>
    <circle cx="500" cy="150" r="20" fill="#4f46e5" opacity="0.2"/>
    <circle cx="470" cy="180" r="15" fill="#6366f1" opacity="0.2"/>
</svg>
